#!OML:ASF X:\für Bonn\!DataBase\2005_08_11_Bastian_Final\c3d\Bastian.ASF
:FULLY-SPECIFIED
:DEGREES
49
root -0.758102 16.9491 -4.03403 159.872 -7.10624 -177.954
lowerback 23.4247 0.0877211 4.38513
upperback 11.1518 -1.45546 -0.102167
thorax -0.829112 -1.61474 -2.24875
lowerneck -10.7794 -0.0325863 -3.78034
upperneck -10.1076 -0.547988 4.57526
head -1.3652 -0.64899 2.10109
rclavicle -5.51627e-015 1.19271e-014
rhumerus -43.8024 24.0665 -99.3729
rradius 101.39
rwrist 7.73836
rhand -16.8726 11.2033
rfingers 7.12502
rthumb 9.35827 -18.5689
lclavicle -5.51627e-015 1.19271e-014
lhumerus -34.5588 -11.2162 86.9407
lradius 62.7184
lwrist 31.4709
lhand -11.1689 -17.1227
lfingers 7.12502
lthumb 14.8578 12.3246
rfemur 7.22784 -8.97482 24.9807
rtibia 40.0872
rfoot -201.65 -189.152
rtoes 5.18194
lfemur -23.8192 8.66909 -11.0786
ltibia 91.5685
lfoot 2.14004 -3.45268
ltoes -34.2155
50
root -0.751482 16.9504 -4.03162 158.488 -6.04566 -178.131
lowerback 24.8467 0.463702 4.72973
upperback 11.5808 -1.09323 -0.213596
thorax -1.00151 -1.52484 -2.63428
lowerneck -10.8786 -0.113422 -3.94917
upperneck -10.171 -0.643849 4.72114
head -1.36534 -0.698014 2.17826
rclavicle -2.28602e-015 -7.05686e-015
rhumerus -43.3234 24.7405 -99.0251
rradius 102.022
rwrist 7.50872
rhand -17.0692 11.0045
rfingers 7.12502
rthumb 9.16855 -18.7762
lclavicle -2.28602e-015 -7.05686e-015
lhumerus -34.7297 -10.6571 86.2596
lradius 60.6959
lwrist 31.5277
lhand -11.5616 -16.6508
lfingers 7.12502
lthumb 14.4795 12.824
rfemur 9.11898 -8.65394 24.7465
rtibia 39.3306
rfoot -201.151 -188.64
rtoes 4.71069
lfemur -25.5376 9.89628 -10.6168
ltibia 95.543
lfoot 1.96992 -3.86661
ltoes -33.2212
51
root -0.747132 16.9524 -4.0325 157.054 -4.94684 -178.294
lowerback 26.2738 0.846324 5.15391
upperback 12.0301 -0.72324 -0.322281
thorax -1.12692 -1.43688 -3.07738
lowerneck -10.9851 -0.204258 -4.11213
upperneck -10.2215 -0.750955 4.89998
head -1.3591 -0.75259 2.26512
rclavicle -3.72721e-014 1.82882e-014
rhumerus -42.8021 25.4418 -98.6459
rradius 102.698
rwrist 7.31335
rhand -17.3263 10.8695
rfingers 7.12502
rthumb 8.92051 -18.9219
lclavicle -3.72721e-014 1.82882e-014
lhumerus -34.9091 -10.1978 85.6377
lradius 58.582
lwrist 31.4649
lhand -11.9133 -16.3393
lfingers 7.12502
lthumb 14.1405 13.1595
rfemur 11.0312 -8.24129 24.5818
rtibia 38.6426
rfoot -200.686 -188.163
rtoes 4.32233
lfemur -27.2937 11.2695 -10.0482
ltibia 99.4315
lfoot 1.42913 -4.44097
ltoes -32.749
52
root -0.745003 16.951 -4.03555 155.602 -3.86774 -178.501
lowerback 27.6894 1.22921 5.54348
upperback 12.4904 -0.375617 -0.413321
thorax -1.21126 -1.36926 -3.48803
lowerneck -11.0492 -0.273258 -4.25859
upperneck -10.3031 -0.833208 5.03935
head -1.37102 -0.795797 2.33727
rclavicle 4.02539e-015 8.34896e-015
rhumerus -42.2269 26.2466 -98.2275
rradius 103.401
rwrist 7.15322
rhand -17.6054 10.7198
rfingers 7.12502
rthumb 8.6511 -19.0829
lclavicle 4.02539e-015 8.34896e-015
lhumerus -35.116 -9.68079 85.0781
lradius 56.4435
lwrist 31.2327
lhand -12.1009 -16.1331
lfingers 7.12502
lthumb 13.9598 13.3783
rfemur 12.9223 -7.75751 24.4234
rtibia 38.0473
rfoot -200.29 -187.741
rtoes 3.95321
lfemur -29.1489 12.703 -9.49191
ltibia 103.201
lfoot 0.944386 -4.95297
ltoes -31.4797
53
root -0.744739 16.9422 -4.04132 154.14 -2.78107 -178.727
lowerback 29.0552 1.6216 5.9274
upperback 12.9894 -0.0438714 -0.483861
thorax -1.20463 -1.31904 -3.88045
lowerneck -11.1331 -0.332358 -4.41962
upperneck -10.4068 -0.903928 5.17977
head -1.38733 -0.834557 2.41318
rclavicle 1.02871e-014 -8.54774e-015
rhumerus -41.5613 27.1281 -97.7431
rradius 104.128
rwrist 7.04911
rhand -17.8911 10.5949
rfingers 7.12502
rthumb 8.37543 -19.2191
lclavicle 1.02871e-014 -8.54774e-015
lhumerus -35.3231 -9.21324 84.5726
lradius 54.2967
lwrist 30.9158
lhand -12.2657 -16.0456
lfingers 7.12502
lthumb 13.8009 13.4766
rfemur 14.7915 -7.19398 24.3221
rtibia 37.5427
rfoot -199.93 -187.405
rtoes 3.48886
lfemur -31.1407 14.2758 -8.89152
ltibia 106.811
lfoot 0.50893 -5.35104
ltoes -29.616
54
root -0.747131 16.9322 -4.04909 152.687 -1.70668 -179.009
lowerback 30.3975 2.0182 6.29555
upperback 13.4948 0.271708 -0.566117
thorax -1.15651 -1.28327 -4.28185
lowerneck -11.1636 -0.377786 -4.51395
upperneck -10.5638 -0.967791 5.29069
head -1.43028 -0.874202 2.46844
rclavicle -1.06847e-014 7.55382e-015
rhumerus -40.7828 28.0378 -97.1961
rradius 104.834
rwrist 6.99459
rhand -18.1178 10.5579
rfingers 7.12502
rthumb 8.15669 -19.2647
lclavicle -1.06847e-014 7.55382e-015
lhumerus -35.5474 -8.80936 84.1157
lradius 52.117
lwrist 30.5117
lhand -12.4601 -16.0059
lfingers 7.12502
lthumb 13.6136 13.529
rfemur 16.6002 -6.59701 24.1922
rtibia 37.1513
rfoot -199.63 -187.051
rtoes 3.0083
lfemur -33.3227 15.9735 -8.35627
ltibia 110.16
lfoot 0.251851 -5.51061
ltoes -26.7769
55
root -0.750293 16.9265 -4.05952 151.247 -0.636246 -179.262
lowerback 31.6928 2.40801 6.69913
upperback 14.0175 0.567456 -0.6153
thorax -1.04231 -1.26321 -4.66982
lowerneck -11.2355 -0.410482 -4.61023
upperneck -10.7076 -1.01529 5.39674
head -1.463 -0.905863 2.52259
rclavicle 1.98785e-014 -9.14409e-015
rhumerus -39.9256 28.9669 -96.5412
rradius 105.553
rwrist 6.98103
rhand -18.283 10.6282
rfingers 7.12502
rthumb 7.99718 -19.2005
lclavicle 1.98785e-014 -9.14409e-015
lhumerus -35.7374 -8.44262 83.7489
lradius 49.9169
lwrist 30.0267
lhand -12.6845 -15.8906
lfingers 7.12502
lthumb 13.3974 13.6586
rfemur 18.3429 -5.97111 24.1511
rtibia 36.8525
rfoot -199.239 -186.724
rtoes 2.66136
lfemur -35.7038 17.7556 -7.83682
ltibia 113.133
lfoot 0.179652 -5.43932
ltoes -23.5571
56
root -0.75531 16.9211 -4.07166 149.822 0.432145 -179.558
lowerback 33.393 -2.69861 3.49181
upperback 14.0759 2.58187 -2.08773
thorax -1.51208 3.70387 -4.8687
lowerneck -11.312 -0.419562 -4.68535
upperneck -10.8554 -1.03631 5.46415
head -1.49795 -0.925318 2.56065
rclavicle -4.14466e-014 2.10712e-014
rhumerus -39.037 29.9208 -95.8217
rradius 106.22
rwrist 7.08038
rhand -18.3977 10.8219
rfingers 7.12502
rthumb 7.88651 -19.011
lclavicle -4.14466e-014 2.10712e-014
lhumerus -35.9598 -8.09365 83.4767
lradius 47.7037
lwrist 29.4148
lhand -12.9355 -15.7235
lfingers 7.12502
lthumb 13.1554 13.8415
rfemur 20.029 -5.38342 24.0608
rtibia 36.6216
rfoot -198.859 -186.33
rtoes 2.19802
lfemur -38.271 19.6137 -7.48703
ltibia 115.664
lfoot 0.354429 -5.16521
ltoes -20.5502
57
root -0.761747 16.9164 -4.08615 148.42 1.48995 -179.857
lowerback 34.6917 -2.67053 3.42202
upperback 14.5284 3.00154 -2.28632
thorax -1.43782 4.08762 -5.1887
lowerneck -11.5007 -0.412352 -4.70491
upperneck -10.97 -1.04488 5.5074
head -1.5044 -0.941401 2.5794
rclavicle 3.57812e-014 -1.88845e-014
rhumerus -38.0793 30.8568 -95.0264
rradius 106.953
rwrist 7.2535
rhand -18.4206 11.0367
rfingers 7.12502
rthumb 7.8644 -18.7971
lclavicle 3.57812e-014 -1.88845e-014
lhumerus -36.1853 -7.82451 83.2973
lradius 45.5232
lwrist 28.8393
lhand -13.2347 -15.4539
lfingers 7.12502
lthumb 12.867 14.1294
rfemur 21.6604 -4.79732 23.9922
rtibia 36.4067
rfoot -198.436 -185.95
rtoes 1.7616
lfemur -41.0934 21.5127 -7.3147
ltibia 117.736
lfoot 0.665875 -4.95533
ltoes -18.919
